<svg width="24" height="24" viewBox="0 0 24 24" fill="none" xmlns="http://www.w3.org/2000/svg">
<path fill-rule="evenodd" clip-rule="evenodd" d="M20.0015 12.9973V21.9973C20.0015 22.5496 19.5538 22.9973 19.0015 22.9973H5.00152C4.44924 22.9973 4.00152 22.5496 4.00152 21.9973V12.9973C4.00152 12.445 3.55381 11.9973 3.00152 11.9973H2.57233C1.66032 11.9973 1.22431 10.8764 1.8966 10.2601L11.3113 1.63003C11.6996 1.27405 12.2975 1.2804 12.6782 1.64455L21.7006 10.2746C22.3522 10.8979 21.9054 11.9973 21.0038 11.9973C20.4515 11.9973 20.0015 12.445 20.0015 12.9973ZM16.7515 18.9973C16.7515 18.5831 16.4157 18.2473 16.0015 18.2473H8.00152C7.58731 18.2473 7.25152 18.5831 7.25152 18.9973C7.25152 19.4115 7.58731 19.7473 8.00152 19.7473H16.0015C16.4157 19.7473 16.7515 19.4115 16.7515 18.9973ZM16.7515 14.9973C16.7515 14.5831 16.4157 14.2473 16.0015 14.2473H8.00152C7.58731 14.2473 7.25152 14.5831 7.25152 14.9973C7.25152 15.4115 7.58731 15.7473 8.00152 15.7473H16.0015C16.4157 15.7473 16.7515 15.4115 16.7515 14.9973Z" fill="#BDF35D"/>
</svg>
