<svg width="24" height="24" viewBox="0 0 24 24" fill="none" xmlns="http://www.w3.org/2000/svg">
<path d="M20 22V13C20 12.4477 20.45 12 21.0022 12C21.9039 12 22.3506 10.9006 21.6991 10.2774L12.6767 1.64726C12.296 1.28312 11.6981 1.27677 11.3097 1.63275L1.89508 10.2628C1.22279 10.8791 1.65879 12 2.5708 12H3C3.55228 12 4 12.4477 4 13V22C4 22.5523 4.44772 23 5 23H19C19.5523 23 20 22.5523 20 22Z" stroke="#7581AB" stroke-width="1.5"/>
<path d="M8 19H16M8 15H16" stroke="#7581AB" stroke-width="1.5" stroke-linecap="round"/>
</svg>
