<svg width="24" height="24" viewBox="0 0 24 24" fill="none" xmlns="http://www.w3.org/2000/svg">
<path d="M12.2825 13.0455H5.71751C3.38824 13.0455 1.5 15.0673 1.5 17.5614C1.5 18.9082 2.50881 20 3.75325 20H14.2467C15.4912 20 16.5 18.9082 16.5 17.5614C16.5 15.0673 14.6118 13.0455 12.2825 13.0455Z" fill="#BDF35D"/>
<path d="M12.375 6.47727C12.375 8.39772 10.864 9.95455 9 9.95455C7.13604 9.95455 5.625 8.39772 5.625 6.47727C5.625 4.55683 7.13604 3 9 3C10.864 3 12.375 4.55683 12.375 6.47727Z" fill="#BDF35D"/>
<path d="M18.1025 12.7582C20.0823 12.7582 21.6873 14.5272 21.6873 16.7095C21.6873 17.8879 20.8298 18.8432 19.7721 18.8432H18.8983M15.3125 10.0537C16.8968 10.0537 18.1811 8.69157 18.1811 7.01125C18.1811 5.33092 16.8968 3.96875 15.3125 3.96875" stroke="#BDF35D" stroke-width="1.5" stroke-linecap="round" stroke-linejoin="round"/>
</svg>
