<svg width="24" height="24" viewBox="0 0 24 24" fill="none" xmlns="http://www.w3.org/2000/svg">
<path d="M18.5013 13.5455C20.9859 13.5455 23 15.5673 23 18.0614C23 19.4082 21.9239 20.5 20.5965 20.5H19.5M15 10.4545C16.9882 10.4545 18.6 8.89772 18.6 6.97727C18.6 5.05683 16.9882 3.5 15 3.5M5.21751 13.5455H11.7825C14.1118 13.5455 16 15.5673 16 18.0614C16 19.4082 14.9912 20.5 13.7467 20.5H3.25325C2.00881 20.5 1 19.4082 1 18.0614C1 15.5673 2.88824 13.5455 5.21751 13.5455ZM11.875 6.97727C11.875 8.89772 10.364 10.4545 8.5 10.4545C6.63604 10.4545 5.125 8.89772 5.125 6.97727C5.125 5.05683 6.63604 3.5 8.5 3.5C10.364 3.5 11.875 5.05683 11.875 6.97727Z" stroke="#7581AB" stroke-width="1.5" stroke-linecap="round" stroke-linejoin="round"/>
</svg>
