<svg
          width="56"
          height="12"
          viewBox="0 0 56 12"
          fill="none"
          xmlns="http://www.w3.org/2000/svg"
        >
          <path
            d="M0.75 4.77344C0.335786 4.77344 0 5.10922 0 5.52344C0 5.93765 0.335786 6.27344 0.75 6.27344V5.52344V4.77344ZM55.2803 6.05377C55.5732 5.76087 55.5732 5.286 55.2803 4.99311L50.5074 0.220137C50.2145 -0.0727568 49.7396 -0.0727568 49.4467 0.220137C49.1538 0.51303 49.1538 0.987904 49.4467 1.2808L53.6893 5.52344L49.4467 9.76608C49.1538 10.059 49.1538 10.5338 49.4467 10.8267C49.7396 11.1196 50.2145 11.1196 50.5074 10.8267L55.2803 6.05377ZM0.75 5.52344V6.27344H54.75V5.52344V4.77344H0.75V5.52344Z"
            fill="#bdf35d"
          />
        </svg>
