<svg width="20" height="20" viewBox="0 0 20 20" fill="none" xmlns="http://www.w3.org/2000/svg">
<g opacity="0.6">
<path d="M7.41667 0.835938C7.41667 0.421724 7.08088 0.0859375 6.66667 0.0859375C6.25245 0.0859375 5.91667 0.421724 5.91667 0.835938H6.66667H7.41667ZM5.91667 4.16927C5.91667 4.58348 6.25245 4.91927 6.66667 4.91927C7.08088 4.91927 7.41667 4.58348 7.41667 4.16927H6.66667H5.91667ZM14.0833 0.835938C14.0833 0.421724 13.7475 0.0859375 13.3333 0.0859375C12.9191 0.0859375 12.5833 0.421724 12.5833 0.835938H13.3333H14.0833ZM12.5833 4.16927C12.5833 4.58348 12.9191 4.91927 13.3333 4.91927C13.7475 4.91927 14.0833 4.58348 14.0833 4.16927H13.3333H12.5833ZM4.16667 2.5026V3.2526H15.8333V2.5026V1.7526H4.16667V2.5026ZM17.5 4.16927H16.75V15.8359H17.5H18.25V4.16927H17.5ZM15.8333 17.5026V16.7526H4.16667V17.5026V18.2526H15.8333V17.5026ZM2.5 15.8359H3.25V4.16927H2.5H1.75V15.8359H2.5ZM4.16667 17.5026V16.7526C3.96846 16.7526 3.73546 16.6544 3.54041 16.4565C3.34392 16.2572 3.25 16.0217 3.25 15.8359H2.5H1.75C1.75 16.487 2.0534 17.0848 2.47224 17.5096C2.89251 17.9359 3.49284 18.2526 4.16667 18.2526V17.5026ZM17.5 15.8359H16.75C16.75 16.0217 16.6561 16.2572 16.4596 16.4565C16.2645 16.6544 16.0315 16.7526 15.8333 16.7526V17.5026V18.2526C16.5072 18.2526 17.1075 17.9359 17.5278 17.5096C17.9466 17.0848 18.25 16.487 18.25 15.8359H17.5ZM15.8333 2.5026V3.2526C16.0315 3.2526 16.2645 3.35085 16.4596 3.54869C16.6561 3.74799 16.75 3.98354 16.75 4.16927H17.5H18.25C18.25 3.51821 17.9466 2.92042 17.5278 2.49559C17.1075 2.0693 16.5072 1.7526 15.8333 1.7526V2.5026ZM4.16667 2.5026V1.7526C3.49284 1.7526 2.89251 2.0693 2.47224 2.49559C2.0534 2.92042 1.75 3.51821 1.75 4.16927H2.5H3.25C3.25 3.98354 3.34392 3.74799 3.54041 3.54869C3.73546 3.35085 3.96846 3.2526 4.16667 3.2526V2.5026ZM6.66667 0.835938H5.91667V4.16927H6.66667H7.41667V0.835938H6.66667ZM13.3333 0.835938H12.5833V4.16927H13.3333H14.0833V0.835938H13.3333ZM17.5 7.5026V6.7526H2.5V7.5026V8.2526H17.5V7.5026Z" fill="#1F263D"/>
</g>
</svg>
