<svg width="20" height="20" viewBox="0 0 20 20" fill="none" xmlns="http://www.w3.org/2000/svg">
<g opacity="0.6">
<path d="M15.4204 11.2853C17.4908 11.2853 19.1693 12.9702 19.1693 15.0486C19.1693 16.1709 18.2725 17.0807 17.1664 17.0807H16.2526M12.5026 8.70952C14.1595 8.70952 15.5026 7.41216 15.5026 5.81179C15.5026 4.21142 14.1595 2.91406 12.5026 2.91406M4.35053 11.2853H9.82135C11.7624 11.2853 13.3359 12.9702 13.3359 15.0486C13.3359 16.1709 12.4953 17.0807 11.4582 17.0807H2.71364C1.67661 17.0807 0.835938 16.1709 0.835938 15.0486C0.835938 12.9702 2.40947 11.2853 4.35053 11.2853ZM9.89844 5.81179C9.89844 7.41216 8.63924 8.70952 7.08594 8.70952C5.53264 8.70952 4.27344 7.41216 4.27344 5.81179C4.27344 4.21142 5.53264 2.91406 7.08594 2.91406C8.63924 2.91406 9.89844 4.21142 9.89844 5.81179Z" stroke="#1F263D" stroke-width="1.5" stroke-linecap="round" stroke-linejoin="round"/>
</g>
</svg>
