<svg width="20" height="20" viewBox="0 0 20 20" fill="none" xmlns="http://www.w3.org/2000/svg">
<g opacity="0.6" clip-path="url(#clip0_2004_538)">
<path d="M14.1693 11.6667H15.0026M18.3359 8.75H13.7526C12.1418 8.75 10.8359 10.0558 10.8359 11.6667C10.8359 13.2775 12.1418 14.5833 13.7526 14.5833H18.3359V11.6667V8.75Z" stroke="#1F263D" stroke-width="1.5" stroke-linecap="round" stroke-linejoin="round"/>
<path d="M1.66406 3.33073C1.66406 4.2512 2.41025 4.9974 3.33073 4.9974H13.3307M1.66406 3.33073C1.66406 2.41025 2.41025 1.66406 3.33073 1.66406H13.3307C14.2512 1.66406 14.9974 2.41025 14.9974 3.33073C14.9974 4.2512 14.2512 4.9974 13.3307 4.9974M1.66406 3.33073V7.4974V15.8307C1.66406 17.2114 2.78335 18.3307 4.16406 18.3307H15.8307C17.2114 18.3307 18.3307 17.2114 18.3307 15.8307V7.4974C18.3307 6.11668 17.2114 4.9974 15.8307 4.9974H13.3307" stroke="#1F263D" stroke-width="1.5"/>
</g>
<defs>
<clipPath id="clip0_2004_538">
<rect width="20" height="20" fill="white"/>
</clipPath>
</defs>
</svg>
