<svg width="20" height="20" viewBox="0 0 20 20" fill="none" xmlns="http://www.w3.org/2000/svg">
<path d="M16.4176 8.14707C19.3502 8.14707 19.167 10.5909 19.167 11.8128V14.5621H17.3341M16.4176 8.14707C13.9738 8.14707 6.52012 8.14707 3.58751 8.14707M16.4176 8.14707L15.5012 4.48131C15.5012 3.87035 15.1346 2.64844 13.6683 2.64844C11.8355 2.64844 7.80313 2.64844 6.33683 2.64844C4.87053 2.64844 4.50395 3.87035 4.50395 4.48131L3.58751 8.14707M3.58751 8.14707C0.654913 8.14707 0.8382 10.5909 0.8382 11.8128V14.5621H2.67108M2.67108 14.5621L2.67105 17.7697H6.3368L6.33683 14.5621M2.67108 14.5621H6.33683M6.33683 14.5621H13.6683M17.3341 14.5621L17.3341 17.7697H13.6683L13.6683 14.5621M17.3341 14.5621H13.6683" stroke="#6F7483" stroke-width="1.5" stroke-linecap="round" stroke-linejoin="round"/>
<path d="M3.58594 10.8984H5.41881M16.4161 10.8984H14.5832M8.16813 14.106H11.8339" stroke="#6F7483" stroke-width="1.5" stroke-linecap="round" stroke-linejoin="round"/>
</svg>
