<svg width="64px" height="64px" viewBox="0 -8 72 72" id="Layer_1" data-name="Layer 1" xmlns="http://www.w3.org/2000/svg" fill="#000000"><g id="SVGRepo_bgCarrier" stroke-width="0"></g><g id="SVGRepo_tracerCarrier" stroke-linecap="round" stroke-linejoin="round"></g><g id="SVGRepo_iconCarrier"><defs><style>.cls-1{fill:#6F7483<svg width="64px" height="64px" viewBox="0 -16 64 64" version="1.1" xmlns="http://www.w3.org/2000/svg" xmlns:xlink="http://www.w3.org/1999/xlink" xmlns:sketch="http://www.bohemiancoding.com/sketch/ns" fill="#000000" transform="matrix(-1, 0, 0, 1, 0, 0)"><g id="SVGRepo_bgCarrier" stroke-width="0"></g><g id="SVGRepo_tracerCarrier" stroke-linecap="round" stroke-linejoin="round"></g><g id="SVGRepo_iconCarrier"> <title>Car</title> <desc>Created with Sketch.</desc> <defs> </defs> <g id="Page-1" stroke="none" stroke-width="1" fill="none" fill-rule="evenodd" sketch:type="MSPage"> <g id="Car" sketch:type="MSLayerGroup" transform="translate(1.000000, 1.000000)" stroke="#6F7483" stroke-width="2"> <path d="M55,25 L60,25 C61.1,25 62,24.1 62,23 L60,13 C60,11.9 53,11 53,11 C53,11 46.1,0 45,0 L23,0 C21,0 13,11 13,11 C13,11 2.1,13.1 1,18 L0,23 C0,24.1 0.9,25 2,25 L8,25" id="Shape" sketch:type="MSShapeGroup"> </path> <path d="M20.1,25 L42.9,25" id="Shape" sketch:type="MSShapeGroup"> </path> <path d="M28,14 L31,14" id="Shape" sketch:type="MSShapeGroup"> </path> <path d="M46,14 L49,14" id="Shape" sketch:type="MSShapeGroup"> </path> <path d="M1,21 L8.2,21" id="Shape" sketch:type="MSShapeGroup"> </path> <path d="M54.6,21 L61.4,21" id="Shape" sketch:type="MSShapeGroup"> </path> <path d="M31,10 C31,10.6 30.6,11 30,11 L19,11 C18.4,11 18,10.6 18,10 C18,10 23.4,3 24,3 L30,3 C30.6,3 31,3.4 31,4 L31,10 L31,10 Z" id="Shape" sketch:type="MSShapeGroup"> </path> <path d="M35,10 C35,10.6 35.4,11 36,11 L47,11 C47.6,11 48,10.6 48,10 C48,10 43.6,3 43,3 L36,3 C35.4,3 35,3.4 35,4 L35,10 L35,10 Z" id="Shape" sketch:type="MSShapeGroup"> </path> <circle id="Oval" sketch:type="MSShapeGroup" cx="49" cy="24" r="6"> </circle> <circle id="Oval" sketch:type="MSShapeGroup" cx="14" cy="24" r="6"> </circle> </g> </g> </g></svg>;}</style></defs><title>tools</title><path class="cls-1" d="M13.32,44.31a4.5,4.5,0,0,0,6.36,6.36L34.44,35.91l-6.36-6.36Z"></path><polygon class="cls-1" points="50.2 16.96 56.63 13.63 60 7.13 56.86 3.99 50.36 7.36 47.03 13.78 39.21 21.61 42.38 24.79 50.2 16.96"></polygon><path class="cls-1" d="M51.61,34,51,34a8.9,8.9,0,0,0-3.11.58L29.45,16.09A8.9,8.9,0,0,0,30,13l-.06-.6A8.9,8.9,0,0,0,17.19,4.89l6,6a3,3,0,0,1,.68,1.08A3,3,0,0,1,21,16a2.92,2.92,0,0,1-1-.21,3.15,3.15,0,0,1-1.08-.67l-6-6a8.9,8.9,0,0,0,7.49,12.78L21,22a8.9,8.9,0,0,0,3.11-.58L42.6,39.84A8.9,8.9,0,0,0,42,43l.06.6A9,9,0,0,0,51,51.94a8.72,8.72,0,0,0,3.85-.9l-6-6A3.08,3.08,0,0,1,48.21,44,3,3,0,0,1,51,40a2.92,2.92,0,0,1,1,.21,2.72,2.72,0,0,1,1.08.67l6,6A8.9,8.9,0,0,0,51.61,34Z"></path></g></svg>