<svg width="48" height="48" viewBox="0 0 48 48" fill="none" xmlns="http://www.w3.org/2000/svg">
<g opacity="0.75">
<path fill-rule="evenodd" clip-rule="evenodd" d="M24 2C11.8497 2 2 11.8497 2 24C2 36.1503 11.8497 46 24 46C36.1503 46 46 36.1503 46 24C46 11.8497 36.1503 2 24 2ZM24 13.5C23.1716 13.5 22.5 14.1716 22.5 15V24C22.5 24.5015 22.7507 24.9698 23.168 25.248L29.168 29.248C29.8573 29.7076 30.7885 29.5213 31.248 28.832C31.7076 28.1427 31.5213 27.2115 30.832 26.752L25.5 23.1973V15C25.5 14.1716 24.8284 13.5 24 13.5Z" fill="#D0E8FF"/>
</g>
</svg>
